<?xml version="1.0" standalone="no"?>
<!DOCTYPE svg PUBLIC "-//W3C//DTD SVG 20010904//EN"
 "http://www.w3.org/TR/2001/REC-SVG-20010904/DTD/svg10.dtd">
<svg version="1.0" xmlns="http://www.w3.org/2000/svg"
 width="512.000000pt" height="512.000000pt" viewBox="0 0 512.000000 512.000000"
 preserveAspectRatio="xMidYMid meet">

<g transform="translate(0.000000,512.000000) scale(0.100000,-0.100000)"
fill="#FFB919" stroke="none">
<path d="M1370 3818 c-33 -17 -51 -35 -67 -68 l-23 -44 0 -1145 c0 -1137 0
-1145 21 -1187 12 -26 36 -53 57 -66 36 -23 42 -23 322 -23 267 0 287 1 318
20 48 29 76 79 76 135 0 61 -28 108 -83 137 -41 21 -55 23 -218 23 l-173 0 0
959 0 959 183 4 c166 3 185 5 217 25 47 29 74 77 74 134 0 60 -28 107 -83 136
-43 22 -51 23 -310 23 -257 0 -268 -1 -311 -22z"/>
<path d="M3135 3180 c-11 -4 -33 -22 -49 -38 -31 -33 -45 -104 -32 -158 4 -15
58 -79 123 -145 l116 -119 -539 0 -540 0 -44 -22 c-48 -25 -90 -88 -90 -137 0
-42 39 -109 78 -133 l37 -23 549 -3 549 -3 -116 -118 c-65 -67 -119 -130 -123
-145 -3 -15 -4 -50 -2 -77 4 -42 12 -58 41 -87 32 -31 43 -36 96 -40 48 -3 66
0 93 16 18 12 146 135 285 274 358 360 357 317 10 667 -290 291 -302 301 -371
300 -28 0 -60 -4 -71 -9z"/>
</g>
</svg>
