<?xml version="1.0" standalone="no"?>
<!DOCTYPE svg PUBLIC "-//W3C//DTD SVG 20010904//EN"
 "http://www.w3.org/TR/2001/REC-SVG-20010904/DTD/svg10.dtd">
<svg version="1.0" xmlns="http://www.w3.org/2000/svg"
 width="512.000000pt" height="512.000000pt" viewBox="0 0 512.000000 512.000000"
 preserveAspectRatio="xMidYMid meet">

<g transform="translate(0.000000,512.000000) scale(0.100000,-0.100000)"
fill="#FFB919" stroke="none">
<path d="M2290 3874 c-593 -90 -1104 -462 -1373 -999 -62 -124 -117 -272 -117
-315 0 -66 118 -338 207 -477 269 -423 690 -713 1192 -820 116 -25 144 -27
361 -27 217 0 245 2 360 27 504 108 924 396 1193 820 88 138 207 412 207 477
0 65 -119 339 -207 477 -288 454 -766 763 -1296 838 -129 18 -401 18 -527 -1z
m404 -689 c289 -61 506 -329 506 -625 0 -297 -218 -565 -510 -626 -94 -20
-229 -14 -320 15 -312 98 -503 425 -435 745 72 341 416 564 759 491z"/>
<path d="M2485 2871 c-92 -24 -173 -90 -215 -176 -34 -69 -35 -198 -2 -265 34
-71 75 -114 144 -151 58 -31 70 -34 148 -33 72 0 93 4 136 26 75 40 107 70
145 140 31 58 34 70 34 148 0 78 -3 90 -34 148 -57 104 -144 160 -260 167 -36
2 -79 1 -96 -4z"/>
</g>
</svg>
